# xmcd
#
# Track frame offsets:
#	150
#	10792
#	26567
#	40130
#	54516
#	69379
#	85328
#	104284
#	122036
#	138243
#
# Disc length: 2025 seconds
#
# Revision: 1
# Processed by: cddbd v1.5.2PL0 Copyright (c) Steve Scherf et al.
# Submitted via: audiograbber 1.83.01
#
DISCID=7b07e70a
DTITLE=Mountain Joy  - Just Like Home
DYEAR=1900
DGENRE=Gospel
TTITLE0=Bigger Than Any Mountain
TTITLE1=I Gave It To Jesus
TTITLE2=I hope You Fly Away With Me
TTITLE3=In The Valley
TTITLE4=Just Like Home
TTITLE5=On Heavens Bright Shore
TTITLE6=Paradise
TTITLE7=She's Gone
TTITLE8=Saving Grace
TTITLE9=The Kind Of Christian We Should Be
EXTD=
EXTT0=
EXTT1=
EXTT2=
EXTT3=
EXTT4=
EXTT5=
EXTT6=
EXTT7=
EXTT8=
EXTT9=
PLAYORDER=
